<svg width="74" height="71" viewBox="0 0 74 71" fill="none" xmlns="http://www.w3.org/2000/svg">
<g filter="url(#filter0_d_302_329)">
<path fill-rule="evenodd" clip-rule="evenodd" d="M35.9612 17.0627C34.0124 17.37 32.2477 18.4999 31.1544 20.1404C30.79 20.6871 18.0279 43.047 17.7043 43.7057C16.5997 45.954 16.807 48.744 18.2375 50.8796C19.2014 52.3186 20.6741 53.3645 22.3804 53.8217L23.0457 53.9999H36.9005C51.7559 53.9999 51.148 54.0157 52.3005 53.6002C53.3529 53.2207 54.0858 52.7492 54.8942 51.9313C55.5372 51.2809 55.9421 50.696 56.3563 49.8194C56.856 48.7619 57 48.085 57 46.794C57 45.5058 56.8559 44.8259 56.3609 43.7781C56.0705 43.1636 43.7997 21.598 43.055 20.3935C42.3076 19.1846 40.9122 17.9653 39.7845 17.5359C38.5891 17.0808 37.0527 16.8906 35.9612 17.0627ZM37.6441 20.3104C38.5827 20.4618 39.5196 21.0202 40.0569 21.7484C40.4045 22.2195 53.1207 44.4706 53.465 45.2103C54.0003 46.3598 53.8767 47.8144 53.146 48.9663C52.5515 49.9035 51.4999 50.565 50.3638 50.7163C49.9403 50.7728 45.4801 50.7923 36.5874 50.7765L23.4371 50.7533L22.9095 50.5722C20.7542 49.8323 19.6354 47.3533 20.5316 45.3032C20.6892 44.9427 33.2347 22.9081 33.7922 22.0127C34.4138 21.0141 35.6936 20.2921 36.9396 20.2369C37.0472 20.2321 37.3642 20.2652 37.6441 20.3104ZM36.5195 28.4239C35.86 28.5934 35.3577 29.0687 35.0565 29.8086C34.9087 30.1715 34.917 30.6774 35.1296 34.2034C35.2269 35.8148 35.3512 37.8852 35.4061 38.804C35.5262 40.8143 35.6003 41.027 36.3078 41.3895C36.7897 41.6364 37.1275 41.6623 37.5487 41.4845C38.225 41.1992 38.5871 40.5491 38.5799 39.633C38.5781 39.3906 38.6916 37.1898 38.8322 34.7424C39.1139 29.8388 39.1153 29.8817 38.6573 29.2082C38.2151 28.5581 37.3018 28.223 36.5195 28.4239ZM36.4695 43.1019C35.5248 43.4154 34.927 44.2787 34.9976 45.2274C35.0824 46.366 35.8992 47.1447 37.0127 47.1486C37.8077 47.1514 38.4653 46.7396 38.8369 46.0063C39.0367 45.6122 39.0583 44.7217 38.8784 44.2938C38.7109 43.8953 38.3014 43.4479 37.9277 43.255C37.5829 43.0771 36.7939 42.9942 36.4695 43.1019Z" fill="#D78438"/>
</g>
<defs>
<filter id="filter0_d_302_329" x="0" y="0" width="74" height="71" filterUnits="userSpaceOnUse" color-interpolation-filters="sRGB">
<feFlood flood-opacity="0" result="BackgroundImageFix"/>
<feColorMatrix in="SourceAlpha" type="matrix" values="0 0 0 0 0 0 0 0 0 0 0 0 0 0 0 0 0 0 127 0" result="hardAlpha"/>
<feOffset/>
<feGaussianBlur stdDeviation="8.5"/>
<feComposite in2="hardAlpha" operator="out"/>
<feColorMatrix type="matrix" values="0 0 0 0 0.843137 0 0 0 0 0.517647 0 0 0 0 0.219608 0 0 0 1 0"/>
<feBlend mode="normal" in2="BackgroundImageFix" result="effect1_dropShadow_302_329"/>
<feBlend mode="normal" in="SourceGraphic" in2="effect1_dropShadow_302_329" result="shape"/>
</filter>
</defs>
</svg>
