<svg width="541" height="542" viewBox="0 0 541 542" fill="none" xmlns="http://www.w3.org/2000/svg">
<path d="M487.57 272.113C487.57 391.382 390.883 488.068 271.615 488.068C152.346 488.068 55.6602 391.382 55.6602 272.113C55.6602 152.845 152.346 56.1584 271.615 56.1584C390.883 56.1584 487.57 152.845 487.57 272.113ZM76.8268 272.113C76.8268 379.692 164.036 466.901 271.615 466.901C379.193 466.901 466.403 379.692 466.403 272.113C466.403 164.535 379.193 77.3251 271.615 77.3251C164.036 77.3251 76.8268 164.535 76.8268 272.113Z" fill="white" fill-opacity="0.1"/>
<path d="M353.989 272.113C353.989 318.837 316.61 356.714 270.501 356.714C224.392 356.714 187.014 318.837 187.014 272.113C187.014 225.389 224.392 187.512 270.501 187.512C316.61 187.512 353.989 225.389 353.989 272.113ZM195.197 272.113C195.197 314.257 228.912 348.422 270.501 348.422C312.091 348.422 345.806 314.257 345.806 272.113C345.806 229.969 312.091 195.804 270.501 195.804C228.912 195.804 195.197 229.969 195.197 272.113Z" fill="white" fill-opacity="0.1"/>
<path d="M512.057 272.113C512.057 404.907 404.406 512.558 271.612 512.558C138.819 512.558 31.168 404.907 31.168 272.113C31.168 139.319 138.819 31.6687 271.612 31.6687C404.406 31.6687 512.057 139.319 512.057 272.113ZM36.1161 272.113C36.1161 402.174 141.551 507.609 271.612 507.609C401.673 507.609 507.109 402.174 507.109 272.113C507.109 142.052 401.673 36.6169 271.612 36.6169C141.551 36.6169 36.1161 142.052 36.1161 272.113Z" fill="white" fill-opacity="0.1"/>
<path d="M61.6352 99.1112C24.9736 143.659 3.51579 198.762 0.395817 256.372C-2.72416 313.982 12.6572 371.08 44.2933 419.327L48.9484 416.274C17.9634 369.02 2.89855 313.097 5.95432 256.673C9.01009 200.249 30.0263 146.28 65.9335 102.649L61.6352 99.1112Z" fill="white" fill-opacity="0.25"/>
<path d="M479.365 99.1112C516.026 143.659 537.484 198.762 540.604 256.372C543.724 313.982 528.343 371.08 496.707 419.327L492.052 416.274C523.037 369.02 538.101 313.097 535.046 256.673C531.99 200.249 510.974 146.28 475.067 102.649L479.365 99.1112Z" fill="white" fill-opacity="0.25"/>
</svg>
