<svg width="24" height="22" viewBox="0 0 24 22" fill="none" xmlns="http://www.w3.org/2000/svg">
<path fill-rule="evenodd" clip-rule="evenodd" d="M0.0657606 19.8689C0.151758 20.2492 0.450404 20.8132 0.7189 21.1024C1.00221 21.4076 1.5612 21.7582 1.95259 21.8761C2.35027 21.9959 3.03431 22.0366 3.42641 21.9637C3.81368 21.8917 4.354 21.6518 4.65481 21.4182C5.34607 20.8813 5.71125 20.1468 5.7128 19.2902L5.7135 18.9119L7.95239 16.7853L10.1913 14.6588L8.56131 13.1114L6.9313 11.564L3.726 14.6143C0.527774 17.6579 0.520224 17.6655 0.326238 18.0432C0.008976 18.6609 -0.0747707 19.2476 0.0657606 19.8689ZM2.07371 18.9657C2.20416 18.6762 2.51073 18.4885 2.85317 18.4885C3.18047 18.4885 3.47616 18.6611 3.63104 18.9427C3.73359 19.1291 3.71493 19.4928 3.59222 19.7002C3.33221 20.1396 2.66861 20.2286 2.27304 19.8772C2.01904 19.6516 1.93595 19.2715 2.07371 18.9657ZM9.79074 12.7642C11.8022 14.674 11.805 14.6764 11.9031 14.592C12.0975 14.425 13.1724 13.2874 13.7546 12.6327C16.1648 9.92216 18.6969 6.21457 20.3271 3.00901L20.7147 2.24687L20.9393 2.22069C21.0629 2.2063 21.3595 2.18096 21.5984 2.1644L22.0328 2.13425L21.8497 2.50742C21.3422 3.54168 21.2042 3.80476 20.6612 4.77312C18.5427 8.55139 15.8135 12.251 13.2438 14.8279C12.919 15.1535 12.6533 15.4346 12.6533 15.4524C12.6533 15.5041 13.3769 16.1729 13.433 16.1729C13.4922 16.1729 14.7039 14.9369 15.3102 14.2581C18.8726 10.2695 22.1205 5.02156 23.7942 0.549683L24 8.58275e-07L22.3006 0.0213308C20.5132 0.0438185 20.2827 0.0659953 19.5945 0.281791C19.0582 0.449937 18.6155 0.672677 18.1161 1.02549C17.8083 1.24298 7.77669 10.7328 7.77669 10.8065C7.77669 10.8315 8.68304 11.7124 9.79074 12.7642Z" fill="white"/>
</svg>
