<svg width="19" height="24" viewBox="0 0 19 24" fill="none" xmlns="http://www.w3.org/2000/svg">
<path fill-rule="evenodd" clip-rule="evenodd" d="M0.290942 10.4167C0.230047 10.5063 0.161966 10.6711 0.139699 10.783C0.0906885 11.0289 0.0697222 14.7684 0.116034 15.0058C0.205276 15.4633 0.580411 15.773 1.06117 15.7861C1.29095 15.7924 1.31012 15.7843 2.09994 15.3459C2.56539 15.0876 2.91376 14.9152 2.92628 14.9369C2.93821 14.9575 3.3451 16.6237 3.83046 18.6395C4.47969 21.3356 4.74299 22.3557 4.82641 22.498C4.9827 22.7647 5.27179 22.9546 5.56743 22.9849L5.80344 23.0091L8.27388 21.5828L10.7443 20.1565L10.8392 19.9412C11.0036 19.5679 10.9725 19.4434 10.2737 17.6798C9.92828 16.808 9.64817 16.0842 9.65123 16.0715C9.65435 16.0588 9.82454 16.0078 10.0294 15.9581C10.5782 15.825 11.2463 15.4275 11.6414 14.999C12.3576 14.2223 12.7063 13.2281 12.6286 12.1844C12.5707 11.4067 12.292 10.678 11.8054 10.0324L11.6309 9.80076L15.1308 7.76561L18.6307 5.73052L18.7366 5.55315C19.0745 4.98732 18.903 4.26098 18.344 3.89048C18.2232 3.81042 18.1215 3.73995 18.118 3.73386C18.1145 3.72782 18.1741 3.67411 18.2504 3.61454C18.5859 3.35282 18.8049 2.76769 18.7532 2.27115C18.7113 1.86925 18.4295 1.3848 18.0972 1.14379C17.6658 0.830807 17.1188 0.754011 16.6243 0.937065C16.4717 0.993568 13.3161 2.79616 8.3893 5.64118C0.689827 10.0873 0.397686 10.2596 0.290942 10.4167ZM10.3896 10.7557C10.64 11.0188 10.8438 11.3325 10.9432 11.6078C11.3264 12.6691 10.864 13.8527 9.88718 14.3109C9.63047 14.4313 9.12748 14.5395 9.04361 14.4924C8.98909 14.4618 8.36998 12.9087 8.40439 12.8888C8.41864 12.8806 8.59252 12.9543 8.79079 13.0526C8.98909 13.151 9.21465 13.2473 9.292 13.2667C9.58977 13.3413 9.89871 13.2147 10.0638 12.9503C10.187 12.7531 10.2141 12.6176 10.1791 12.3731C10.134 12.0586 9.97801 11.9064 9.40782 11.6208L8.90811 11.3705L9.575 10.9855L10.2419 10.6005L10.3896 10.7557Z" fill="white"/>
</svg>
