<svg width="32" height="32" viewBox="0 0 32 32" fill="none" xmlns="http://www.w3.org/2000/svg">
<path fill-rule="evenodd" clip-rule="evenodd" d="M26.5303 4.02471L21.7408 8.05241L21.484 7.77629C21.0379 7.29671 21.1742 7.21737 18.3076 9.62563C16.9162 10.7946 15.7634 11.7513 15.7459 11.7515C15.6999 11.7522 14.8721 10.7741 14.8363 10.6769C14.8199 10.6321 14.922 10.4998 15.0633 10.3831L15.3201 10.1709L16.002 10.2121L16.6838 10.2534L17.7059 9.40172C19.0528 8.27925 19.19 8.15038 19.2371 7.96337C19.2949 7.73396 19.2415 7.65099 18.461 6.75836C17.7597 5.95621 17.5825 5.82547 17.3271 5.92157C17.1723 5.97978 15.0322 7.77491 14.8647 7.98713C14.7783 8.09649 14.7404 8.24611 14.7365 8.49347C14.7335 8.68655 14.7124 8.9763 14.6895 9.13724L14.6479 9.42999L12.5946 11.1544L10.5413 12.8789L9.65818 12.967L8.77496 13.055L8.22774 13.5125C7.43334 14.1765 7.39813 14.2169 7.39813 14.4652C7.39813 14.6515 7.49818 14.8007 8.09047 15.4975C8.8329 16.3709 8.97946 16.504 9.1989 16.504C9.35457 16.504 10.5833 15.515 10.7029 15.2934C10.7426 15.2199 10.8652 14.8221 10.9754 14.4094L11.1756 13.6591L11.636 13.2683C11.8892 13.0534 12.1211 12.8775 12.1514 12.8775C12.1986 12.8775 12.8005 13.5659 13.0306 13.8832C13.0987 13.977 12.9827 14.0961 12.0726 14.8668C11.5032 15.349 10.9367 15.8635 10.8138 16.01C10.1751 16.7715 10.0748 17.6132 10.5362 18.338L10.7186 18.6244L7.83117 21.05C6.24306 22.3841 4.86748 23.516 4.77433 23.5654C4.68112 23.6148 4.32265 23.6737 3.97723 23.6963C3.56145 23.7235 3.25345 23.7797 3.06495 23.8628C2.80308 23.9782 0.465201 25.8717 0.12694 26.2424C0.0218652 26.3576 -0.0130969 26.4583 0.00422724 26.5965C0.0346073 26.8393 3.64092 31.8638 3.8544 31.9606C4.08149 32.0637 4.2865 31.9755 4.77722 31.5634C5.35394 31.0791 5.4958 30.9189 5.64544 30.5829C5.8372 30.1524 5.80449 29.7111 5.51764 28.8606C5.34296 28.3426 5.2805 28.0673 5.30737 27.9335C5.33561 27.793 5.77468 27.3062 6.98386 26.0746C7.8849 25.1569 8.84099 24.216 9.10851 23.9836C9.5794 23.5745 9.59667 23.5656 9.64945 23.7059C9.67946 23.7857 9.96355 24.5543 10.2807 25.414C10.6358 26.3765 10.907 27.0193 10.9864 27.0866C11.2807 27.3363 11.4455 27.2563 12.5571 26.324C13.2887 25.7104 13.6098 25.4009 13.6403 25.2799C13.6748 25.1431 13.6004 24.9391 13.2765 24.2822L12.8692 23.4567L13.4911 22.9184C14.2006 22.3042 14.4219 21.9567 14.475 21.373C14.513 20.9562 14.3779 20.4632 14.1401 20.1504C14.0569 20.0409 13.9888 19.9367 13.9888 19.9188C13.9888 19.901 14.9563 19.071 16.1387 18.0744C18.1481 16.3807 18.3838 16.1598 19.7481 14.6914C20.5509 13.8273 21.2548 13.0306 21.3123 12.9208C21.3711 12.8083 21.429 12.5153 21.4448 12.2495C21.4682 11.8578 21.449 11.7223 21.3315 11.4504C21.2538 11.2703 21.201 11.1148 21.2144 11.1047C21.2277 11.0946 21.5819 10.7988 22.0015 10.4472C22.9398 9.6609 22.9788 9.56423 22.5662 9.04776C22.4632 8.91883 22.3907 8.80397 22.4051 8.79253C22.9277 8.37685 31.7654 0.937843 31.8622 0.832111C32.0506 0.626399 32.0453 0.345718 31.8494 0.150574C31.5109 -0.186631 31.7159 -0.335944 26.5303 4.02471ZM14.4833 11.8495C14.7336 12.1439 14.9295 12.4079 14.9187 12.4364C14.8996 12.4867 13.9387 13.3152 13.8995 13.3152C13.8887 13.3152 13.6643 13.0627 13.4008 12.7541L12.9217 12.193L13.4396 11.7537C13.7244 11.5121 13.9733 11.3143 13.9928 11.3143C14.0123 11.3143 14.2329 11.5552 14.4833 11.8495ZM20.454 12.1601C20.454 12.4811 20.5121 12.4091 18.6735 14.3671C17.625 15.4837 17.2034 15.8705 15.1973 17.5559C13.9416 18.6109 12.8915 19.4822 12.8636 19.4921C12.8357 19.502 12.6635 19.3384 12.4809 19.1285C12.1566 18.7555 12.1517 18.7442 12.2686 18.635C12.3754 18.5352 14.5517 16.7058 18.5992 13.3132C19.3569 12.6781 20.0628 12.0836 20.1679 11.9921C20.2729 11.9007 20.3802 11.839 20.4064 11.8551C20.4326 11.8713 20.454 12.0084 20.454 12.1601ZM13.3712 20.8207C13.6171 21.2774 13.4834 21.6246 12.8606 22.147C12.6249 22.3448 12.4155 22.5066 12.3952 22.5066C12.375 22.5066 12.2583 22.3085 12.136 22.0665L11.9135 21.6264L12.1183 21.4569C12.2309 21.3636 12.5072 21.1273 12.7323 20.9317C12.9573 20.7361 13.1671 20.5829 13.1986 20.5911C13.23 20.5994 13.3077 20.7027 13.3712 20.8207Z" fill="white"/>
</svg>
