<svg width="41" height="37" viewBox="0 0 41 37" fill="none" xmlns="http://www.w3.org/2000/svg">
<path fill-rule="evenodd" clip-rule="evenodd" d="M37.3182 0.358724C37.1288 0.514519 37.1788 0.813468 37.5321 1.6383L37.8842 2.46043L36.503 3.59373L35.1218 4.72711L34.2358 4.83679C33.7485 4.89705 33.2115 5.0021 33.0424 5.07018C32.8732 5.13827 32.056 5.75508 31.2262 6.44092L29.7175 7.68796L29.9289 7.934L30.1403 8.18004L31.5598 7.03602C32.8637 5.98503 33.0193 5.8827 33.4721 5.77796L33.965 5.66385L32.2314 7.14026L30.4977 8.61657L30.8235 9.02016L31.1494 9.42375L33.1551 7.77461C34.4951 6.67274 35.1772 6.15884 35.2102 6.22597C35.2425 6.29179 34.5753 6.88979 33.2785 7.95754C31.7005 9.25684 31.3152 9.61009 31.3842 9.69399C31.4532 9.77789 31.8716 9.47148 33.4406 8.18739C34.6999 7.15689 35.4869 6.56553 35.6225 6.54797C35.8386 6.51997 36.2538 6.12545 36.1719 6.02593C36.0992 5.93754 38.9563 3.62433 39.1187 3.64013C39.289 3.65668 39.9177 3.16327 39.9335 3.00067C39.9395 2.93928 39.8657 2.79943 39.7697 2.6898L39.5951 2.49058L39.978 2.15348C40.483 1.70885 40.5354 1.3557 40.1356 1.09267C39.9092 0.943828 39.7015 1.0013 39.2606 1.33501L38.8893 1.61587L38.3501 0.964421C37.804 0.30465 37.5589 0.1607 37.3182 0.358724ZM37.4297 4.54159C36.5107 5.29766 35.9898 5.67714 35.9316 5.63293C35.8718 5.58739 36.3119 5.1782 37.2704 4.38858C38.2259 3.6014 38.7216 3.24023 38.7685 3.29724C38.8154 3.35417 38.3724 3.76596 37.4297 4.54159ZM28.6262 8.08863C28.5395 8.11313 27.6128 8.84029 26.567 9.70438L24.6652 11.2755L24.9496 11.6697C25.2579 12.0973 25.3277 12.4354 25.1996 12.882C25.1306 13.1224 24.8642 13.3771 23.4904 14.5169C22.5954 15.2595 21.7643 15.9075 21.6436 15.9569C21.3815 16.064 20.8508 16.025 20.6271 15.8822C20.5389 15.8259 20.2771 15.5548 20.0454 15.2798L19.6241 14.7799L15.5867 18.1137C10.9748 21.9219 11.1898 21.6913 11.0011 23.0332L10.8928 23.8032L11.7201 24.795L12.5473 25.7869L13.3354 25.8886C14.0018 25.9747 14.1446 26.0166 14.2596 26.1598C14.3345 26.2529 14.6088 27.0698 14.8691 27.9751C15.3531 29.6584 15.5153 29.9911 15.8668 30.0216C16.1805 30.0489 17.7919 29.5989 17.9482 29.4403C18.2877 29.096 18.1709 28.7688 17.4596 28.0709C17.3012 27.9154 17.1153 27.4937 16.8004 26.5753C16.4211 25.4693 16.3715 25.2546 16.4342 24.9875C16.4739 24.8178 16.485 24.5999 16.4587 24.5034C16.4124 24.334 16.4249 24.3306 16.8252 24.4033C17.0592 24.4458 17.3427 24.4471 17.4763 24.4064C17.6066 24.3667 18.0981 24.0085 18.5688 23.6103L19.4245 22.8863L19.4737 22.3804L19.5229 21.8744L19.0745 21.2959C18.7332 20.8556 18.6498 20.698 18.725 20.6361C18.8712 20.5158 18.99 20.5498 19.2139 20.7762C19.9855 21.5563 21.979 22.9204 23.0066 23.3716C24.612 24.0764 25.9807 24.4068 27.7792 24.5238C29.265 24.6203 29.5684 24.5678 29.806 24.173C29.9521 23.9304 29.9528 23.8665 29.8234 22.6316C29.7116 21.5642 29.6572 21.3005 29.506 21.0941C29.3053 20.8202 29.1341 20.7868 27.8256 20.7673C27.0913 20.7562 25.73 20.4938 24.9475 20.2125C23.88 19.8288 22.4649 18.7954 22.0822 18.1202C21.9961 17.9681 22.2829 17.7163 26.4129 14.3178C29.1715 12.0477 30.8412 10.6225 30.8502 10.5302C30.8661 10.3669 29.1157 8.16619 28.9096 8.09027C28.8403 8.0648 28.7128 8.06403 28.6262 8.08863ZM21.7073 12.5007C20.6938 13.33 20.1492 13.8267 20.1391 13.9309C20.1163 14.1653 20.9497 15.1419 21.1927 15.1655C21.4671 15.1922 24.3866 12.7898 24.4133 12.5154C24.4349 12.2933 23.6108 11.2641 23.3945 11.243C23.3205 11.2358 22.5614 11.8018 21.7073 12.5007ZM15.8085 20.5969C15.8267 20.7913 14.6817 22.3633 14.3615 22.5836C13.6234 23.0915 12.8649 22.0494 13.535 21.4482C13.8112 21.2004 15.5163 20.3923 15.6819 20.4308C15.7443 20.4453 15.8013 20.5201 15.8085 20.5969ZM18.7144 21.5368C19.074 21.9692 19.1149 22.0567 19.0878 22.3355C19.0592 22.6296 19.0049 22.6916 18.1866 23.3625C17.372 24.0304 17.2958 24.0745 17.0055 24.0463C16.73 24.0195 16.6503 23.961 16.2964 23.5263C16.0771 23.2569 15.8999 23.0133 15.9027 22.985C15.9054 22.9568 16.0576 23.0182 16.2408 23.1215C16.4834 23.2582 16.7041 23.3156 17.0531 23.3327C17.542 23.3565 17.7482 23.2411 17.447 23.1122C17.2469 23.0266 16.733 22.4726 16.7445 22.3548C16.7524 22.2726 18.1934 21.0398 18.2725 21.0475C18.2935 21.0495 18.4923 21.2697 18.7144 21.5368ZM9.8912 24.7399C9.74213 24.9294 9.48149 25.3632 9.312 25.704C8.81999 26.6937 8.32091 27.1204 7.48655 27.265C6.58648 27.4209 6.38488 27.5549 3.45372 29.9451C1.89972 31.2123 0.569725 32.3382 0.498254 32.4472C0.426775 32.5562 0.352173 32.8114 0.33244 33.0143L0.296574 33.3832L1.67709 35.0611L3.05761 36.7389L3.44206 36.776C3.68199 36.7992 3.92152 36.7671 4.07942 36.6908C4.26895 36.599 5.2894 35.307 8.15499 31.5306L11.9776 26.4928L11.1211 25.4491C10.65 24.8751 10.2415 24.4033 10.2134 24.4005C10.1853 24.3978 10.0404 24.5505 9.8912 24.7399Z" fill="white"/>
</svg>
