<svg width="27" height="29" viewBox="0 0 27 29" fill="none" xmlns="http://www.w3.org/2000/svg">
<path fill-rule="evenodd" clip-rule="evenodd" d="M16.8613 1.74301L17.1151 2.18252L15.8022 2.94049L14.4894 3.69845L14.2357 3.25895L13.9819 2.81944L15.2947 2.06147L16.6076 1.30351L16.8613 1.74301ZM21.0095 2.86412L21.7707 4.18264L13.797 8.78401L5.82328 13.3854L4.35766 12.5207C3.55154 12.0451 2.88329 11.6409 2.8726 11.6223C2.86191 11.6038 6.76706 9.32897 11.5507 6.56713L20.2482 1.5456L21.0095 2.86412ZM3.55091 13.2161C4.51032 13.7789 5.39729 14.2767 5.52199 14.3222C5.98619 14.4918 5.48131 14.7594 14.2354 9.70521L22.2782 5.06165L22.7857 5.94067L23.2932 6.81968L20.8927 8.20562L18.4922 9.59157L19.1051 11.7099C19.5799 13.3511 19.7068 13.8719 19.6687 14.0216C19.6199 14.2133 19.6071 14.2219 18.0033 15.1479L16.3871 16.081L17.529 18.0588L18.6709 20.0366L16.264 21.4262L13.8571 22.8158L11.5734 18.8602L9.28965 14.9047L6.22636 16.6733L3.16308 18.4418L1.64058 15.8048L0.118083 13.1678L0.962346 12.6803L1.80661 12.1929L3.55091 13.2161ZM26.1469 1.65608L26.9081 2.9746L25.1577 3.98523L23.4072 4.99585L22.646 3.67733L21.8847 2.35881L23.6352 1.34819L25.3856 0.337564L26.1469 1.65608ZM14.5928 11.9626C14.9325 12.5509 15.984 12.7977 16.6102 12.4362C17.0035 12.2091 17.4628 12.5704 17.3449 13.0142C17.2893 13.2235 17.2605 13.2498 16.9071 13.4119C16.4267 13.6323 15.7929 13.6898 15.2704 13.5606L14.8755 13.4628L15.3776 14.3324L15.8796 15.202L17.2403 14.4164L18.6011 13.6308L18.096 11.8713L17.5909 10.1119L16.066 10.9924C14.6913 11.786 14.5461 11.8816 14.5928 11.9626ZM10.5713 19.1458L12.2207 22.0026L11.5642 22.3816L10.9078 22.7605L9.72253 20.7075C8.47012 18.5383 8.17702 18.1152 7.54661 17.566C7.38238 17.4229 7.24305 17.2973 7.23705 17.2869C7.23109 17.2765 7.60772 17.0477 8.07405 16.7785L8.92192 16.289L10.5713 19.1458ZM19.9525 24.2777L21.6019 27.1345L20.0702 28.0188L18.5386 28.9031L16.8892 26.0463L15.2399 23.1895L16.7715 22.3052L18.3031 21.4209L19.9525 24.2777Z" fill="white"/>
</svg>
