<svg width="13" height="15" viewBox="0 0 13 15" fill="none" xmlns="http://www.w3.org/2000/svg">
<path fill-rule="evenodd" clip-rule="evenodd" d="M2.27682 0.103037C1.18605 0.937647 0.44823 2.27405 0.29009 3.70166C0.250447 4.05935 0.252599 4.52572 0.294221 4.60447C0.312836 4.63966 0.348844 4.68451 0.374207 4.70414C0.441133 4.75588 4.55887 4.75588 4.62579 4.70414C4.71509 4.63509 4.73961 4.53917 4.73961 4.25906C4.73961 2.64609 3.96784 1.05539 2.72318 0.103037C2.63769 0.0375879 2.55043 -0.00439453 2.5 -0.00439453C2.44957 -0.00439453 2.36231 0.0375879 2.27682 0.103037ZM0.106588 5.3098C0.0653157 5.34835 0.0236066 5.42414 0.013921 5.47825C0.00426451 5.53239 0.000134259 7.26639 0.0047589 9.33164L0.0131647 13.0866L0.0836686 13.1622C0.122469 13.2038 0.178081 13.2378 0.207283 13.2378C0.250825 13.2378 0.260394 13.2615 0.260394 13.3696C0.260394 13.4777 0.250825 13.5015 0.207283 13.5015C0.178081 13.5015 0.122469 13.5354 0.0836686 13.577C0.015666 13.6499 0.0128157 13.6703 0.00339195 14.1522C-0.00786425 14.7264 0.00507877 14.829 0.101033 14.9256L0.17049 14.9956H2.5H4.82951L4.89897 14.9256C4.99492 14.829 5.00786 14.7264 4.99661 14.1522C4.98718 13.6703 4.98433 13.6499 4.91633 13.577C4.87753 13.5354 4.82192 13.5015 4.79272 13.5015C4.74918 13.5015 4.73961 13.4777 4.73961 13.3696C4.73961 13.2615 4.74918 13.2378 4.79272 13.2378C4.82192 13.2378 4.87753 13.2038 4.91633 13.1622L4.98684 13.0866L4.99524 9.33164C4.99987 7.26639 4.99574 5.53239 4.98608 5.47825C4.97639 5.42414 4.93468 5.34835 4.89341 5.3098L4.81837 5.23975H2.5H0.18163L0.106588 5.3098Z" fill="#CB8B4F"/>
<path fill-rule="evenodd" clip-rule="evenodd" d="M10.2768 0.103037C9.18605 0.937647 8.44823 2.27405 8.29009 3.70166C8.25045 4.05935 8.2526 4.52572 8.29422 4.60447C8.31284 4.63966 8.34884 4.68451 8.37421 4.70414C8.44113 4.75588 12.5589 4.75588 12.6258 4.70414C12.7151 4.63509 12.7396 4.53917 12.7396 4.25906C12.7396 2.64609 11.9678 1.05539 10.7232 0.103037C10.6377 0.0375879 10.5504 -0.00439453 10.5 -0.00439453C10.4496 -0.00439453 10.3623 0.0375879 10.2768 0.103037ZM8.10659 5.3098C8.06532 5.34835 8.02361 5.42414 8.01392 5.47825C8.00426 5.53239 8.00013 7.26639 8.00476 9.33164L8.01316 13.0866L8.08367 13.1622C8.12247 13.2038 8.17808 13.2378 8.20728 13.2378C8.25082 13.2378 8.26039 13.2615 8.26039 13.3696C8.26039 13.4777 8.25082 13.5015 8.20728 13.5015C8.17808 13.5015 8.12247 13.5354 8.08367 13.577C8.01567 13.6499 8.01282 13.6703 8.00339 14.1522C7.99214 14.7264 8.00508 14.829 8.10103 14.9256L8.17049 14.9956H10.5H12.8295L12.899 14.9256C12.9949 14.829 13.0079 14.7264 12.9966 14.1522C12.9872 13.6703 12.9843 13.6499 12.9163 13.577C12.8775 13.5354 12.8219 13.5015 12.7927 13.5015C12.7492 13.5015 12.7396 13.4777 12.7396 13.3696C12.7396 13.2615 12.7492 13.2378 12.7927 13.2378C12.8219 13.2378 12.8775 13.2038 12.9163 13.1622L12.9868 13.0866L12.9952 9.33164C12.9999 7.26639 12.9957 5.53239 12.9861 5.47825C12.9764 5.42414 12.9347 5.34835 12.8934 5.3098L12.8184 5.23975H10.5H8.18163L8.10659 5.3098Z" fill="#CB8B4F"/>
</svg>
