<svg width="415" height="433" viewBox="0 0 415 433" fill="none" xmlns="http://www.w3.org/2000/svg">
<path fill-rule="evenodd" clip-rule="evenodd" d="M77.9981 126.316C66.0793 146.43 59.5299 169.507 58.851 193.779C57.8562 229.346 69.4968 266.599 91.3117 297.663C115.042 331.455 151.346 357.52 188.44 367.398C203.672 371.455 214.148 372.727 229.794 372.421C246.11 372.101 258.212 369.909 271.916 364.791C284.65 360.036 298.519 351.681 308.032 343.037C311.73 339.678 312.739 338.475 311.762 338.597C303.78 339.586 299.798 340.581 297.439 342.178C285.156 350.493 269.256 356.869 254.08 359.566C221.361 365.381 185.924 357.437 154.684 337.286C147.285 332.513 133.576 321.183 127.354 314.7C93.7176 279.648 77.6482 234.096 83.7971 191.23C86.4808 172.521 92.473 157.634 103.256 142.888C114.712 127.22 126.531 117.533 143.44 109.949C176.367 95.1818 216.549 98.6965 252.187 119.463L259.182 123.539L273.392 118.139C281.208 115.169 290.418 111.731 293.858 110.498L300.114 108.258L294.337 103.717C262.613 78.7807 223.589 65.2962 185.279 66.0324C152.837 66.6563 122.901 78.3983 99.5323 99.6665C93.5132 105.144 82.3789 118.924 77.9981 126.316ZM111.98 156.617C87.0698 194.215 91.8036 248.813 123.573 290.315C129.809 298.462 134.77 303.688 143.293 311.085C152.061 318.697 157.982 322.904 166.513 327.588C185.745 338.146 205.048 343.061 225.671 342.649C250.021 342.163 269.995 334.492 287.5 318.905C292.057 314.847 302.317 301.691 305.502 295.823C325.76 258.494 320.049 208.471 291.096 169.644C279.765 154.448 264.701 141.105 248.161 131.614C237.632 125.572 221.613 119.689 210.086 117.631C169.591 110.4 132.954 124.958 111.98 156.617ZM142.417 160.457C156.379 147.246 173.975 140.435 193.983 140.497C240.113 140.64 283.588 178.775 291.983 226.462C296.306 251.017 291.383 273.044 277.631 290.677C263.813 308.396 244.996 317.571 221.579 318.009C207.702 318.268 195.094 315.612 182.417 309.759C172.781 305.31 168.649 302.671 159.443 295.088C152.304 289.208 150.178 287.179 145.743 282.016C118.172 249.919 112.316 207.717 130.88 174.903C132.675 171.731 139.392 163.318 142.417 160.457ZM191.23 158.777C191.036 160.875 192.01 191.935 192.713 206.06C193.075 213.345 193.027 219.059 192.599 219.613C190.099 222.854 190.925 232.631 194.067 236.97C202.534 248.664 217.499 248.366 222.034 236.412C223.717 231.977 221.297 222.232 217.739 219.112C217.13 218.578 215.188 212.904 213.133 205.653C208.733 190.126 199.744 160.455 198.855 158.522C197.86 156.359 196.555 155.478 194.505 155.585C192.459 155.694 191.422 156.705 191.23 158.777Z" fill="white" fill-opacity="0.15"/>
</svg>
